<?xml version="1.0" encoding="UTF-8" standalone="no"?><!DOCTYPE svg PUBLIC "-//W3C//DTD SVG 1.1//EN" "http://www.w3.org/Graphics/SVG/1.1/DTD/svg11.dtd"><svg width="100%" height="100%" viewBox="0 0 209 226" version="1.1" xmlns="http://www.w3.org/2000/svg" xmlns:xlink="http://www.w3.org/1999/xlink" xml:space="preserve" xmlns:serif="http://www.serif.com/" style="fill-rule:evenodd;clip-rule:evenodd;stroke-linecap:round;stroke-linejoin:round;stroke-miterlimit:1.5;"><rect id="Artboard1" x="0" y="0" width="208.333" height="225.549" style="fill:none;"/><clipPath id="_clip1"><rect x="0" y="0" width="208.333" height="225.549"/></clipPath><g clip-path="url(#_clip1)"><path d="M92.248,23.413c0.44,-8.832 9.598,-15.895 20.814,-15.895c11.497,0 20.83,7.421 20.83,16.56c0,9.14 -9.333,16.56 -20.83,16.56c-4.1,-0 -7.924,-0.944 -11.149,-2.573c-11.606,21.726 -31.167,60.722 -32.887,79.345c-1.455,15.751 18.458,33.117 24.894,43.31c0.665,-0.945 1.812,-1.51 3.041,-1.373l22.973,2.554c1.796,0.2 3.091,1.82 2.892,3.615l-0.724,6.507c-0.2,1.795 -1.819,3.091 -3.615,2.891l-7.67,-0.853l6.685,8.618c0.301,0.388 0.563,0.794 0.787,1.212c0.043,0.049 0.084,0.099 0.124,0.151l14.783,19.057c1.123,1.448 0.86,3.535 -0.588,4.659l-5.248,4.07c-1.448,1.124 -3.536,0.86 -4.659,-0.588l-10.534,-13.58l-7.812,6.06l10.886,14.033c0.929,1.198 0.711,2.925 -0.487,3.854l-4.34,3.366c-1.198,0.929 -2.924,0.711 -3.853,-0.486l-15.487,-19.965c-0.08,-0.103 -0.151,-0.209 -0.214,-0.319c-0.151,-0.166 -0.296,-0.339 -0.436,-0.519l-14.186,-18.288c-2.899,-3.736 -2.218,-9.123 1.518,-12.021l3.069,-2.38c-7.584,-8.904 -27.678,-34.191 -25.866,-53.585c2.176,-23.283 24.228,-71.803 37.289,-93.997Z" style="fill:#ff0075;stroke:#000;stroke-width:0.91px;"/><path d="M110.851,224.635l-0.437,0.338c-1.198,0.929 -2.924,0.711 -3.853,-0.486l-15.487,-19.965c-0.08,-0.103 -0.151,-0.209 -0.214,-0.319c-0.151,-0.166 -0.296,-0.339 -0.436,-0.519l-14.186,-18.288c-2.899,-3.736 -2.218,-9.123 1.518,-12.021l3.069,-2.38c-7.584,-8.904 -27.678,-34.191 -25.866,-53.585c2.176,-23.283 24.228,-71.803 37.289,-93.997c0.44,-8.832 9.598,-15.895 20.814,-15.895c0.703,0 1.397,0.028 2.082,0.083c-10.245,0.81 -18.316,7.534 -18.729,15.812c-13.061,22.194 -35.113,70.714 -37.289,93.997c-1.812,19.394 18.282,44.681 25.866,53.585l-3.069,2.38c-3.737,2.898 -4.417,8.285 -1.519,12.021l14.187,18.288c0.139,0.18 0.285,0.353 0.436,0.519c0.063,0.11 0.134,0.216 0.214,0.319l15.486,19.965c0.04,0.051 0.081,0.1 0.124,0.148Zm0.628,-0.488c-0.066,0.288 -0.138,0.577 -0.212,0.867c-0.149,-0.11 -0.289,-0.237 -0.416,-0.379l0.628,-0.488Zm2.254,-24.469l2.601,-2.018l10.534,13.58c0.161,0.208 0.343,0.392 0.54,0.551l-0.048,0.037c-1.448,1.124 -3.536,0.86 -4.659,-0.588l-8.968,-11.562Zm14.033,11.835c0.022,0.188 0.042,0.376 0.062,0.565c-0.146,-0.084 -0.286,-0.18 -0.42,-0.287l0.358,-0.278Zm-14.033,-11.835l-0.244,0.189l0.02,-0.115c0.007,-0.044 0.015,-0.088 0.023,-0.132l0.03,-0.162l0.171,0.22Zm1.999,-192.117l0.002,0.093c-0.195,-0.02 -0.392,-0.038 -0.59,-0.053c0.196,-0.016 0.391,-0.029 0.588,-0.04Z" style="fill:#ff5700;fill-opacity:0.76;stroke:#000;stroke-width:0.91px;"/><path d="M78.228,174.267c-1.246,-9.26 11.873,-19.572 18.95,-16.219c1.95,0.924 -2.476,-4.005 -4.367,-5.065c-9.281,-5.201 -21.242,5.435 -18.54,15.502c0.619,2.307 4.277,8.16 3.957,5.782Zm-17.691,-29.021c-0.952,-6.837 9.075,-14.451 14.484,-11.975c1.491,0.683 -1.893,-2.957 -3.338,-3.74c-7.093,-3.84 -16.235,4.013 -14.171,11.446c0.474,1.704 3.27,6.025 3.025,4.269Zm-4.2,-46.302c5.328,-4.39 17.063,0.171 17.783,6.077c0.199,1.627 1.53,-3.161 1.441,-4.802c-0.44,-8.054 -11.915,-11.735 -17.169,-6.087c-1.204,1.295 -3.424,5.939 -2.055,4.812Zm16.666,-41.667c5.328,-4.389 17.063,0.172 17.784,6.077c0.198,1.627 1.53,-3.16 1.44,-4.802c-0.439,-8.054 -11.915,-11.735 -17.168,-6.086c-1.205,1.294 -3.424,5.938 -2.056,4.811Zm16.667,-33.333c5.328,-4.39 17.063,0.171 17.783,6.077c0.199,1.627 1.531,-3.161 1.441,-4.802c-0.439,-8.054 -11.915,-11.735 -17.169,-6.087c-1.204,1.295 -3.423,5.939 -2.055,4.812Z" style="fill:none;stroke:#000;stroke-width:0.91px;"/></g></svg>