<?xml version="1.0" encoding="UTF-8" standalone="no"?><!DOCTYPE svg PUBLIC "-//W3C//DTD SVG 1.1//EN" "http://www.w3.org/Graphics/SVG/1.1/DTD/svg11.dtd"><svg width="100%" height="100%" viewBox="0 0 209 209" version="1.1" xmlns="http://www.w3.org/2000/svg" xmlns:xlink="http://www.w3.org/1999/xlink" xml:space="preserve" xmlns:serif="http://www.serif.com/" style="fill-rule:evenodd;clip-rule:evenodd;stroke-linecap:round;stroke-linejoin:round;stroke-miterlimit:1.5;"><rect id="Artboard1" x="0" y="0" width="208.333" height="208.333" style="fill:none;"/><path d="M104.167,86.456c-0,-3.468 -2.816,-6.284 -6.284,-6.284l-26.82,0c-3.468,0 -6.283,2.816 -6.283,6.284l-0,12.567c-0,3.467 2.815,6.283 6.283,6.283l26.82,0c3.468,0 6.284,-2.816 6.284,-6.283l-0,-12.567Zm50,-0c-0,-3.468 -2.816,-6.284 -6.284,-6.284l-26.82,0c-3.468,0 -6.283,2.816 -6.283,6.284l-0,12.567c-0,3.467 2.815,6.283 6.283,6.283l26.82,0c3.468,0 6.284,-2.816 6.284,-6.283l-0,-12.567Z" style="stroke:#000;stroke-width:4.17px;"/><path d="M96.563,105.306c1.265,-1.84 1.931,-3.926 1.931,-6.051c0,-6.679 -6.458,-12.101 -14.413,-12.101c-7.955,-0 -14.413,5.422 -14.413,12.101c-0,2.125 0.666,4.211 1.931,6.051l24.964,0Zm50,0c1.265,-1.84 1.931,-3.926 1.931,-6.051c0,-6.679 -6.458,-12.101 -14.413,-12.101c-7.955,-0 -14.413,5.422 -14.413,12.101c-0,2.125 0.666,4.211 1.931,6.051l24.964,0Z" style="fill:#fff;stroke:#000;stroke-width:4.17px;"/><path d="M87.964,96.906l-8.703,-0l-0,1.807l8.703,-0l-0,-1.807Zm50.724,-0l-8.703,-0l0,1.807l8.703,-0l0,-1.807Z" style="fill:#620a0a;fill-opacity:0.77;stroke:#000;stroke-width:4.17px;"/></svg>