<?xml version="1.0" encoding="UTF-8" standalone="no"?><!DOCTYPE svg PUBLIC "-//W3C//DTD SVG 1.1//EN" "http://www.w3.org/Graphics/SVG/1.1/DTD/svg11.dtd"><svg width="100%" height="100%" viewBox="0 0 209 209" version="1.1" xmlns="http://www.w3.org/2000/svg" xmlns:xlink="http://www.w3.org/1999/xlink" xml:space="preserve" xmlns:serif="http://www.serif.com/" style="fill-rule:evenodd;clip-rule:evenodd;stroke-linecap:round;stroke-linejoin:round;stroke-miterlimit:1.5;"><rect id="Artboard1" x="0" y="0" width="208.333" height="208.333" style="fill:none;"/><path d="M64.78,131.925c0.117,-1.469 1.301,-3.264 4.834,-5.776l-0.008,0.233c6.324,-4.131 22.133,-6.632 39.224,-6.632c24.313,0 44.051,5.455 44.051,12.175c0,6.719 -19.738,12.174 -44.051,12.174c-24.312,-0 -44.05,-5.455 -44.05,-12.174Z" style="stroke:#f00;stroke-width:4.17px;"/><path d="M85.458,142.243l-0,-0.641c-0,-2.807 2.278,-5.085 5.085,-5.085l35.601,-0c2.807,-0 5.086,2.278 5.086,5.085l-0,0.806c-6.565,1.074 -14.223,1.691 -22.4,1.691c-8.582,-0 -16.594,-0.68 -23.372,-1.856Zm-2.934,-20.082c7.341,-1.514 16.448,-2.411 26.306,-2.411c9.861,0 18.97,0.898 26.312,2.412l-0,2.118c-0,2.327 -1.89,4.217 -4.217,4.217l-44.184,-0c-2.328,-0 -4.217,-1.89 -4.217,-4.217l-0,-2.119Z" style="fill:#fff;stroke:#f00;stroke-width:4.17px;"/></svg>