<?xml version="1.0" encoding="UTF-8" standalone="no"?><!DOCTYPE svg PUBLIC "-//W3C//DTD SVG 1.1//EN" "http://www.w3.org/Graphics/SVG/1.1/DTD/svg11.dtd"><svg width="100%" height="100%" viewBox="0 0 200 150" version="1.1" xmlns="http://www.w3.org/2000/svg" xmlns:xlink="http://www.w3.org/1999/xlink" xml:space="preserve" xmlns:serif="http://www.serif.com/" style="fill-rule:evenodd;clip-rule:evenodd;stroke-linecap:round;stroke-linejoin:round;stroke-miterlimit:1.5;"><path d="M16.803,147.101l166.394,0c1.194,-7.918 1.803,-16.018 1.803,-24.174c0,-65.134 -38.087,-118.015 -85,-118.015c-46.913,0 -85,52.881 -85,118.015c0,8.156 0.609,16.256 1.803,24.174Z"/><clipPath id="_clip1"><path d="M16.803,147.101l166.394,0c1.194,-7.918 1.803,-16.018 1.803,-24.174c0,-65.134 -38.087,-118.015 -85,-118.015c-46.913,0 -85,52.881 -85,118.015c0,8.156 0.609,16.256 1.803,24.174Z"/></clipPath><g clip-path="url(#_clip1)"><path d="M60.915,18.12c-27.268,19.657 -45.915,59.233 -45.915,104.807c0,8.156 0.609,16.256 1.803,24.174l166.394,0c0.99,-6.566 1.578,-13.256 1.749,-20l18.251,0c1.194,-7.918 1.803,-16.018 1.803,-24.174c0,-65.134 -38.087,-118.015 -85,-118.015c-22.95,0 -43.787,12.655 -59.085,33.208Zm124.031,108.981c0.036,-1.389 0.054,-2.781 0.054,-4.174c0,-65.134 -38.087,-118.015 -85,-118.015c-14.088,0 -27.38,4.769 -39.085,13.208c-15.977,21.463 -25.915,51.537 -25.915,84.807c0,8.156 0.609,16.256 1.803,24.174l148.143,0Z" style="fill-opacity:0.65;"/></g><path d="M16.803,147.101l166.394,0c1.194,-7.918 1.803,-16.018 1.803,-24.174c0,-65.134 -38.087,-118.015 -85,-118.015c-46.913,0 -85,52.881 -85,118.015c0,8.156 0.609,16.256 1.803,24.174Z" style="fill:none;stroke:#000;stroke-width:6px;"/></svg>