<?xml version="1.0" encoding="UTF-8" standalone="no"?><!DOCTYPE svg PUBLIC "-//W3C//DTD SVG 1.1//EN" "http://www.w3.org/Graphics/SVG/1.1/DTD/svg11.dtd"><svg width="100%" height="100%" viewBox="0 0 209 209" version="1.1" xmlns="http://www.w3.org/2000/svg" xmlns:xlink="http://www.w3.org/1999/xlink" xml:space="preserve" xmlns:serif="http://www.serif.com/" style="fill-rule:evenodd;clip-rule:evenodd;stroke-linecap:round;stroke-linejoin:round;stroke-miterlimit:1.5;"><rect id="Artboard1" x="0" y="0" width="208.333" height="208.333" style="fill:none;"/><clipPath id="_clip1"><rect id="Artboard11" serif:id="Artboard1" x="0" y="0" width="208.333" height="208.333"/></clipPath><g clip-path="url(#_clip1)"><path d="M60.408,128.05c-11.392,1.614 -20.159,11.305 -20.159,23.003c-0,4.079 1.086,8.086 3.151,11.619l40.734,-0c2.064,-3.533 3.15,-7.54 3.15,-11.619c0,-2.114 -0.286,-4.162 -0.822,-6.108c0.524,-0.967 0.822,-2.077 0.822,-3.256l0,-134.895c0,-3.75 -3.01,-6.794 -6.719,-6.794l-13.438,0c-3.708,0 -6.719,3.044 -6.719,6.794l-0,121.256Zm60.432,15.026l-0.046,0.124c-0.892,2.454 -1.379,5.098 -1.379,7.853c0,4.079 1.087,8.086 3.151,11.619l40.734,-0c2.064,-3.533 3.151,-7.54 3.151,-11.619c0,-11.256 -8.116,-20.653 -18.875,-22.785c-0,0 -0,-121.474 -0,-121.474c-0,-3.75 -3.011,-6.794 -6.719,-6.794l-13.439,0c-3.708,0 -6.719,3.044 -6.719,6.794l0,134.895c0,0.475 0.048,0.939 0.141,1.387Zm-34.477,1.52l0.004,0.013l-0.004,-0.013Zm-0.035,-0.119l0.005,0.017l-0.005,-0.017Zm-0.034,-0.111l0.002,0.007l-0.002,-0.007Zm34.591,-1.412l-0.026,0.071l0.026,-0.071Zm0.048,-0.125l-0.028,0.074l0.028,-0.074Zm0.057,-0.146l-0.04,0.1l0.04,-0.1Zm0.055,-0.14c-0.016,0.04 -0.032,0.081 -0.048,0.122l0.048,-0.122Zm0.05,-0.125l-0.04,0.099l0.04,-0.099Zm0.056,-0.136l-0.044,0.108l0.044,-0.108Zm0.113,-0.268l-0.055,0.128l-0.053,0.127c0.035,-0.085 0.071,-0.17 0.108,-0.255Zm0.056,-0.13l-0.053,0.122l0.053,-0.122Zm1.87,-3.455c-0.717,1.09 -1.343,2.244 -1.868,3.45c0.525,-1.206 1.151,-2.359 1.868,-3.45Zm0.043,-0.066l-0.032,0.048l0.07,-0.105l-0.038,0.057Zm0.122,-0.183l-0.063,0.095l0.063,-0.095l0.065,-0.096l-0.065,0.096Zm0.124,-0.181l-0.039,0.057l0.073,-0.106l-0.034,0.049Zm0.125,-0.18l-0.083,0.12l0.073,-0.106l0.068,-0.096l-0.058,0.082Zm0.308,-0.428l-0.073,0.1c-0.027,0.037 -0.055,0.075 -0.082,0.113l-0.073,0.102c0.075,-0.105 0.151,-0.21 0.228,-0.315Zm0.257,-0.341l-0.079,0.103c-0.028,0.037 -0.056,0.074 -0.084,0.112l-0.072,0.097c0.077,-0.105 0.155,-0.209 0.235,-0.312Zm0.086,-0.113l-0.067,0.088l0.073,-0.095l0.077,-0.099l-0.083,0.106Zm0.136,-0.173l-0.041,0.052l0.082,-0.103l-0.041,0.051Zm0.136,-0.171l-0.083,0.105l0.078,-0.098l0.075,-0.093l-0.07,0.086Zm0.339,-0.411l-0.077,0.093c-0.03,0.036 -0.06,0.072 -0.09,0.108l-0.082,0.099c0.082,-0.1 0.165,-0.2 0.249,-0.3Zm0.278,-0.322l-0.083,0.094c-0.03,0.036 -0.061,0.071 -0.091,0.107l-0.08,0.093c0.084,-0.099 0.168,-0.197 0.254,-0.294Zm0.091,-0.104l-0.067,0.076l0.078,-0.089l0.086,-0.096l-0.097,0.109Zm0.146,-0.163l-0.04,0.044l0.086,-0.095l-0.046,0.051Zm0.147,-0.162l-0.079,0.086l0.079,-0.086l0.078,-0.084l-0.078,0.084Zm0.149,-0.161l-0.047,0.051l0.087,-0.093l-0.04,0.042Zm0.151,-0.159l-0.099,0.105l0.087,-0.092l0.079,-0.082l-0.067,0.069Zm0.364,-0.372l-0.083,0.083c-0.033,0.034 -0.066,0.067 -0.099,0.101l-0.085,0.087c0.088,-0.091 0.177,-0.182 0.267,-0.271Zm0.097,-0.097l-0.063,0.063l0.081,-0.081l0.09,-0.088l-0.108,0.106Zm0.207,-0.202l-0.088,0.085l0.088,-0.085Zm0.107,-0.104l-0.071,0.069l0.077,-0.074l0.075,-0.071l-0.081,0.076Zm0.203,-0.191l-0.087,0.082l0.087,-0.082Zm0.118,-0.109l-0.082,0.076l0.074,-0.069l0.076,-0.07l-0.068,0.063Zm0.198,-0.179l-0.087,0.078l0.087,-0.078Zm0.127,-0.115l-0.099,0.089l0.079,-0.07l0.08,-0.071l-0.06,0.052Zm0.165,-0.144l-0.057,0.05l0.083,-0.072l0.074,-0.064l-0.1,0.086Zm0.219,-0.188l-0.085,0.073l0.085,-0.073Zm0.116,-0.097l-0.064,0.053l0.076,-0.063l0.063,-0.053l-0.075,0.063Zm0.213,-0.177l-0.084,0.069l0.084,-0.069Zm0.126,-0.102l-0.068,0.056l0.067,-0.055l0.067,-0.054l-0.066,0.053Zm0.209,-0.166l-0.083,0.065l0.083,-0.065Zm0.136,-0.107l-0.067,0.053l0.051,-0.04l0.075,-0.058l-0.059,0.045Zm0.204,-0.156l-0.081,0.062l0.081,-0.062Zm0.198,-0.148l-0.08,0.059l0.08,-0.059Zm-50.956,0.01l0.001,0.001l-0.001,-0.001Zm51.081,-0.103l-0.056,0.041l0.106,-0.077l-0.05,0.036Zm-51.177,0.032l0.003,0.003l-0.003,-0.003Zm51.4,-0.193l-0.079,0.057l0.079,-0.057Zm0.135,-0.095l-0.058,0.041l0.114,-0.081l-0.056,0.04Zm-52.015,-0.055l0.008,0.006l-0.008,-0.006Zm52.233,-0.097l-0.077,0.053l0.077,-0.053Zm-52.333,0.027l0.012,0.008l-0.012,-0.008Zm52.478,-0.125l-0.052,0.035l0.105,-0.071l-0.053,0.036Zm0.213,-0.143l-0.075,0.05l0.075,-0.05Zm-53.179,-0.059l0.016,0.01l-0.016,-0.01Zm53.382,-0.073l-0.071,0.046l0.071,-0.046Zm-53.486,0.005l0.02,0.013l-0.02,-0.013Zm-0.097,-0.062l0.012,0.007l-0.012,-0.007Zm53.743,-0.046l-0.071,0.046l0.071,-0.046Zm0.207,-0.129l-0.071,0.044l0.071,-0.044Zm0.179,-0.11l-0.083,0.05l0.083,-0.05Zm-54.528,0.035l0.023,0.014l-0.023,-0.014Zm-0.107,-0.065l0.026,0.016l-0.026,-0.016Zm54.827,-0.086l-0.07,0.043l0.07,-0.043Zm-54.93,0.024l0.021,0.013l-0.021,-0.013Zm55.128,-0.14l-0.086,0.05l0.086,-0.05Zm-55.419,-0.03l0.007,0.004l-0.007,-0.004Zm55.597,-0.072l-0.069,0.039l0.069,-0.039Zm-55.708,0.008l0.03,0.017l-0.03,-0.017Zm-0.111,-0.063l0.034,0.019l-0.034,-0.019Zm56.025,-0.061l-0.061,0.034l0.061,-0.034Zm-56.133,0l0.031,0.018l-0.031,-0.018Zm56.306,-0.096l-0.065,0.036l0.065,-0.036Zm-56.597,-0.063l0.018,0.01l-0.018,-0.01Zm57.111,-0.209l-0.126,0.065c-0.042,0.022 -0.084,0.044 -0.126,0.066l-0.113,0.061c0.121,-0.065 0.243,-0.129 0.365,-0.192Zm-57.225,0.148l0.037,0.02l-0.037,-0.02Zm-0.114,-0.06l0.041,0.021l-0.041,-0.021Zm-0.112,-0.059l0.039,0.021l-0.039,-0.021Zm57.958,-0.282c-0.17,0.082 -0.339,0.167 -0.507,0.253c0.168,-0.086 0.337,-0.17 0.507,-0.253Zm-58.057,0.232l0.024,0.012l-0.024,-0.012Zm-0.194,-0.098l0.031,0.015l-0.031,-0.015Zm-0.116,-0.058l0.044,0.022l-0.044,-0.022Zm-0.117,-0.057l0.047,0.023l-0.047,-0.023Zm58.868,-0.201l-0.125,0.059c-0.043,0.02 -0.086,0.04 -0.129,0.061l-0.126,0.06c0.126,-0.061 0.253,-0.121 0.38,-0.18Zm-58.984,0.145l0.047,0.022l-0.047,-0.022Zm-0.112,-0.054l0.042,0.02l-0.042,-0.02Zm-0.182,-0.085l0.044,0.021l-0.044,-0.021Zm59.41,-0.066l-0.123,0.056l0.123,-0.056Zm-59.529,0.012l0.052,0.023l-0.052,-0.023Zm59.789,-0.128l-0.128,0.057l-0.129,0.058c0.085,-0.039 0.171,-0.077 0.257,-0.115Zm-59.908,0.074l0.053,0.024l-0.053,-0.024Zm-0.12,-0.054l0.054,0.024l-0.054,-0.024Zm60.154,-0.075l-0.12,0.052l0.12,-0.052Zm-60.276,0.022l0.057,0.024l-0.057,-0.024Zm60.671,-0.189l-0.125,0.052c-0.044,0.018 -0.088,0.037 -0.132,0.056l-0.125,0.053c0.127,-0.055 0.254,-0.108 0.382,-0.161Zm-60.845,0.114l0.061,0.026l-0.061,-0.026Zm-0.121,-0.052l0.058,0.025l-0.058,-0.025Zm-0.122,-0.05l0.059,0.024l-0.059,-0.024Zm61.218,-0.065l-0.114,0.046l0.114,-0.046Zm-61.341,0.014l0.06,0.025l-0.06,-0.025Zm61.613,-0.122l-0.13,0.051l-0.128,0.051c0.087,-0.035 0.172,-0.069 0.258,-0.102Zm-61.741,0.071l0.067,0.026l-0.067,-0.026Zm-0.17,-0.067l0.082,0.032l-0.082,-0.032Zm62.037,-0.053l-0.115,0.045l0.115,-0.045Zm-62.16,0.005l0.065,0.025l-0.065,-0.025Zm62.298,-0.057l-0.117,0.044l0.117,-0.044Zm-62.422,0.01l0.063,0.024l-0.063,-0.024Zm62.69,-0.109l-0.126,0.046l-0.132,0.049c0.086,-0.032 0.172,-0.064 0.258,-0.095Zm-62.816,0.061l0.065,0.025l-0.065,-0.025Zm-0.134,-0.049l0.075,0.028l-0.075,-0.028Zm63.08,-0.059l-0.108,0.039l0.108,-0.039Zm-63.247,-0.001l0.11,0.04l-0.11,-0.04Zm63.529,-0.097l-0.133,0.045l-0.126,0.045c0.085,-0.03 0.172,-0.061 0.259,-0.09Zm-63.654,0.053l0.071,0.025l-0.071,-0.025Zm-0.126,-0.044l0.068,0.024l-0.068,-0.024Zm63.907,-0.052l-0.113,0.038l0.113,-0.038Zm-64.036,0.009l0.071,0.023l-0.071,-0.023Zm64.171,-0.054l-0.108,0.036l0.108,-0.036Zm-64.308,0.008l0.081,0.027l-0.081,-0.027Zm-0.166,-0.054l0.121,0.039c-0.04,-0.013 -0.081,-0.026 -0.121,-0.039Zm64.754,-0.044l-0.128,0.041l-0.131,0.042c0.086,-0.028 0.172,-0.056 0.259,-0.083Zm-64.881,0.003l0.077,0.025l-0.077,-0.025Zm65.011,-0.044l-0.104,0.033l0.104,-0.033Zm-65.14,0.004l0.073,0.023l-0.073,-0.023Zm65.285,-0.048l-0.115,0.035l0.115,-0.035Zm-65.415,0.008l0.074,0.023l-0.074,-0.023Zm65.56,-0.051c-0.044,0.013 -0.088,0.026 -0.132,0.039l0.132,-0.039Zm-65.7,0.009l0.086,0.026l-0.086,-0.026Zm-0.167,-0.048l0.125,0.036c-0.042,-0.012 -0.083,-0.024 -0.125,-0.036Zm65.996,0.002l-0.113,0.032l0.113,-0.032Zm0.134,-0.039l-0.102,0.029l0.102,-0.029Zm-66.259,0l0.084,0.024l-0.084,-0.024Zm66.548,-0.079l-0.13,0.035l-0.13,0.036c0.086,-0.024 0.173,-0.048 0.26,-0.071Zm-66.678,0.043l0.077,0.021l-0.077,-0.021Zm-0.132,-0.036l0.078,0.021l-0.078,-0.021Zm-0.142,-0.038l0.089,0.024l-0.089,-0.024Zm67.083,-0.004l-0.101,0.027l0.101,-0.027Zm-67.251,-0.039l0.128,0.032c-0.043,-0.011 -0.085,-0.022 -0.128,-0.032Zm67.392,0.002l-0.105,0.028l0.105,-0.028Zm0.157,-0.039c-0.044,0.011 -0.088,0.022 -0.132,0.033l0.132,-0.033Zm-67.679,0.004l0.089,0.022l-0.089,-0.022Zm67.808,-0.036l-0.114,0.028l0.114,-0.028Zm-67.94,0.003l0.08,0.02l-0.08,-0.02Zm68.075,-0.035l-0.099,0.024l0.099,-0.024Zm-68.21,0.003l0.081,0.019l-0.081,-0.019Zm68.367,-0.039l-0.122,0.028l0.122,-0.028Zm-68.51,0.006l0.092,0.021l-0.092,-0.021Zm68.65,-0.038c-0.043,0.01 -0.087,0.02 -0.132,0.03l0.132,-0.03Zm-68.819,-0.001l0.129,0.03c-0.043,-0.01 -0.086,-0.02 -0.129,-0.03Zm68.951,-0.028l-0.101,0.022l0.101,-0.022Zm-69.084,-0.001l0.095,0.021l-0.095,-0.021Zm69.224,-0.029l-0.101,0.022l0.101,-0.022Zm-69.357,0.001l0.083,0.018l-0.083,-0.018Zm69.521,-0.035c-0.044,0.009 -0.088,0.018 -0.132,0.028l0.132,-0.028Zm-69.657,0.007l0.083,0.017l-0.083,-0.017Zm69.788,-0.033l-0.119,0.024l0.119,-0.024Zm-69.933,0.004l0.094,0.019l-0.094,-0.019Zm-0.171,-0.033l0.132,0.025c-0.044,-0.008 -0.088,-0.017 -0.132,-0.025Zm70.239,0.003l-0.096,0.019l0.096,-0.019Zm8.973,0.005l0.005,0.001l-0.005,-0.001Zm-8.823,-0.033l-0.11,0.021l0.11,-0.021Zm-70.523,-0l0.101,0.018l-0.101,-0.018Zm79.203,0.006l0.01,0.002l-0.01,-0.002Zm-8.525,-0.034c-0.044,0.008 -0.088,0.016 -0.133,0.024l0.133,-0.024Zm-70.813,0.003l0.086,0.016l-0.086,-0.016Zm79.194,0.005l0.015,0.003l-0.015,-0.003Zm-8.248,-0.031l-0.102,0.018l0.102,-0.018Zm-71.083,0.002l0.085,0.015l-0.085,-0.015Zm79.187,0.004l0.019,0.003l-0.019,-0.003Zm-79.333,-0.028l0.096,0.016l-0.096,-0.016Zm71.368,-0.001l-0.097,0.016l0.097,-0.016Zm7.821,0.004l0.023,0.004l-0.023,-0.004Zm-79.362,-0.031l0.134,0.021c-0.045,-0.007 -0.089,-0.014 -0.134,-0.021Zm71.712,-0.001c-0.044,0.007 -0.089,0.014 -0.134,0.022l0.134,-0.022Zm7.505,0.009l0.028,0.004l-0.028,-0.004Zm-7.373,-0.029l-0.131,0.02l0.131,-0.02Zm-71.979,-0l0.106,0.016l-0.106,-0.016Zm79.207,0.006l0.031,0.005l-0.031,-0.005Zm-7.092,-0.027l-0.096,0.015l0.096,-0.015Zm-72.252,0.001l0.089,0.013l-0.089,-0.013Zm79.198,0.004l0.036,0.005l-0.036,-0.005Zm-6.799,-0.025l-0.104,0.014l0.104,-0.014Zm-72.537,0.001l0.086,0.012l-0.086,-0.012Zm79.19,0.003l0.039,0.006l-0.039,-0.006Zm-6.489,-0.027c-0.045,0.006 -0.09,0.012 -0.134,0.018l0.134,-0.018Zm-72.848,0.004l0.096,0.013l-0.096,-0.013Zm79.191,0.003l0.043,0.006l-0.043,-0.006Zm-79.367,-0.026l0.136,0.017c-0.045,-0.006 -0.09,-0.011 -0.136,-0.017Zm73.158,0.002l-0.105,0.013l0.105,-0.013Zm6.063,0.005l0.045,0.006l-0.045,-0.006Zm-79.357,-0.024l0.111,0.014l-0.111,-0.014Zm73.433,0.002l-0.096,0.011l0.096,-0.011Zm-79.226,0.007l-0.022,0.003l0.022,-0.003Zm85.003,-0.004l0.049,0.006l-0.049,-0.006Zm-5.611,-0.023l-0.125,0.015l0.125,-0.015Zm-73.737,0.002l0.09,0.011l-0.09,-0.011Zm79.201,0.004l0.052,0.006l-0.052,-0.006Zm-84.653,-0.003l-0.029,0.003l0.029,-0.003Zm79.333,-0.019c-0.045,0.005 -0.09,0.01 -0.134,0.015l0.134,-0.015Zm-74.021,0.002l0.088,0.01l-0.088,-0.01Zm79.193,0.003l0.055,0.006l-0.055,-0.006Zm-84.292,-0.01l-0.02,0.003l0.02,-0.003Zm4.952,-0.008l0.097,0.01l-0.097,-0.01Zm74.305,-0.001l-0.098,0.01l0.098,-0.01Zm4.888,0.004l0.057,0.006l-0.057,-0.006Zm-79.371,-0.021l0.137,0.014c-0.046,-0.005 -0.092,-0.009 -0.137,-0.014Zm74.628,0.003l-0.101,0.01l0.101,-0.01Zm4.595,0.003l0.059,0.006l-0.059,-0.006Zm-83.782,-0.001l-0.047,0.004l0.047,-0.004Zm79.358,-0.018c-0.046,0.004 -0.091,0.008 -0.135,0.012l0.135,-0.012Zm-74.937,0.001l0.118,0.011l-0.118,-0.011Zm79.213,0.004l0.062,0.006l-0.062,-0.006Zm-83.445,-0.005l-0.016,0.002l0.016,-0.002Zm79.304,-0.011l-0.111,0.009l0.111,-0.009Zm3.992,0.003l0.064,0.006l-0.064,-0.006Zm-79.203,-0.003l0.092,0.008l-0.092,-0.008Zm79.055,-0.009l0.066,0.005l-0.066,-0.005Zm-3.704,-0.002l-0.096,0.007l0.096,-0.007Zm-75.492,-0l0.089,0.007l-0.089,-0.007Zm-3.715,0.003l-0.05,0.004l0.05,-0.004Zm79.365,-0.015l-0.114,0.008l0.114,-0.008Zm-75.797,0.001l0.096,0.007l-0.096,-0.007Zm79.194,0.002l0.068,0.005l-0.068,-0.005Zm-82.568,-0.003l-0.046,0.004l0.046,-0.004Zm79.329,-0.011c-0.046,0.003 -0.091,0.006 -0.136,0.009l0.136,-0.009Zm-76.136,-0l0.138,0.009c-0.046,-0.003 -0.092,-0.006 -0.138,-0.009Zm79.225,0.004l0.071,0.004l-0.071,-0.004Zm-79.364,-0.012l0.124,0.007l-0.124,-0.007Zm-2.83,0.005l-0.038,0.002l0.038,-0.002Zm82.045,-0.003l0.072,0.005l-0.072,-0.005Zm-2.803,-0.002l-0.1,0.006l0.1,-0.006Zm2.653,-0.006l0.074,0.004l-0.074,-0.004Zm-2.508,-0.002l-0.099,0.006l0.099,-0.006Zm-76.697,0l0.093,0.005l-0.093,-0.005Zm-2.483,0.001l-0.054,0.003l0.054,-0.003Zm79.356,-0.009c-0.046,0.002 -0.091,0.004 -0.137,0.006l0.137,-0.006Zm2.182,0.003l0.076,0.003l-0.076,-0.003Zm-79.197,-0.002l0.09,0.004l-0.09,-0.004Zm-2.152,-0.001l-0.013,0.001l0.013,-0.001Zm81.199,-0.004l0.077,0.003l-0.077,-0.003Zm-1.895,-0.002l-0.121,0.005l0.121,-0.005Zm-77.3,0.001l0.096,0.004l-0.096,-0.004Zm79.044,-0.004l0.079,0.002l-0.079,-0.002Zm-79.228,-0.003l0.14,0.005c-0.047,-0.001 -0.093,-0.003 -0.14,-0.005Zm77.624,0.001l-0.096,0.004l0.096,-0.004Zm-79.204,0.002l-0.052,0.001l0.052,-0.001Zm1.44,-0.006l0.132,0.003l-0.132,-0.003Zm79.216,0.001l0.082,0.002l-0.082,-0.002Zm-1.298,-0.001l-0.108,0.003l0.108,-0.003Zm-79.163,-0l-0.044,0.001l0.044,-0.001Zm79.33,-0.004c-0.046,0.001 -0.092,0.002 -0.137,0.003l0.137,-0.003Zm0.979,0.001l0.085,0.002l-0.085,-0.002Zm-79.205,-0.001l0.095,0.002l-0.095,-0.002Zm79.05,-0.002l0.09,0.002l-0.09,-0.002Zm-79.925,0.001l-0.041,0.001l0.041,-0.001Zm79.24,-0.001l-0.104,0.001l0.104,-0.001Zm-78.508,-0l0.091,0.001l-0.091,-0.001Zm79.033,-0.001l0.1,0l-0.1,-0Zm-79.181,-0.001l0.096,0.001l-0.096,-0.001Zm78.8,0l-0.098,0.001l0.098,-0.001Zm-79.177,0l-0.053,0.001l0.053,-0.001Zm79.508,0l-0.151,-0l0.151,0Zm-79.177,0c-0.047,-0 -0.094,-0 -0.14,-0l0.14,0Zm78.888,0l0.138,-0c-0.045,-0 -0.091,-0 -0.138,0Z" style="fill:#fff;fill-opacity:0.84;stroke:#f00;stroke-width:0.36px;"/><path d="M49.167,132.839c-5.432,4.258 -8.918,10.837 -8.918,18.214c-0,4.079 1.086,8.086 3.151,11.619l40.734,-0c0.784,-1.343 1.428,-2.755 1.924,-4.213l-38.492,-0c-2.064,-3.533 -3.151,-7.54 -3.151,-11.619c0,-5.256 1.77,-10.107 4.752,-14.001Zm71.68,10.219c-0.926,2.493 -1.432,5.186 -1.432,7.995c0,4.079 1.087,8.086 3.151,11.619l40.734,-0c0.785,-1.343 1.429,-2.755 1.925,-4.213l-38.492,-0c-2.064,-3.533 -3.151,-7.54 -3.151,-11.619c0,-5.256 1.77,-10.107 4.751,-14.001c4.011,-3.145 9.085,-5.024 14.6,-5.024c1.589,-0 3.141,0.156 4.643,0.453l-0,-4.661c-0.159,-0.004 -0.317,-0.005 -0.476,-0.005c-7.662,-0 -14.472,3.627 -18.767,9.237c-1.269,0.995 -2.431,2.116 -3.467,3.344l-0,-133.602c-0,-0.774 0.128,-1.519 0.365,-2.212c-2.636,0.918 -4.532,3.45 -4.532,6.425l0,134.895c0,0.475 0.048,0.939 0.141,1.387l0.007,-0.018Zm-55.908,-142.689c-2.636,0.918 -4.531,3.45 -4.531,6.425l-0,121.256c1.096,-0.155 2.218,-0.235 3.359,-0.235c10.84,-0 19.978,7.263 22.695,17.13c0.524,-0.967 0.822,-2.077 0.822,-3.256l0,-8.051c-4.245,-6.062 -11.332,-10.036 -19.351,-10.036c-1.141,-0 -2.263,0.08 -3.359,0.235l0,-121.256c0,-0.774 0.129,-1.519 0.365,-2.212Zm55.959,142.551l-0.021,0.057l0.021,-0.057Zm0.063,-0.165l-0.034,0.089l0.034,-0.089Zm0.067,-0.169l-0.03,0.074l0.03,-0.074Zm0.056,-0.141l-0.031,0.077l0.031,-0.077Zm0.065,-0.159l-0.041,0.101l0.041,-0.101Zm0.069,-0.165l-0.053,0.126l0.053,-0.126Zm0.06,-0.14l-0.04,0.094l0.04,-0.094Zm0.066,-0.151l-0.047,0.105l0.047,-0.105Zm0.073,-0.167c-0.02,0.045 -0.04,0.091 -0.061,0.137l0.061,-0.137Zm0.063,-0.138l-0.053,0.116l0.053,-0.116Zm0.067,-0.146l-0.052,0.112l0.052,-0.112Zm0.144,-0.304l-0.067,0.139l-0.065,0.139c0.043,-0.093 0.087,-0.185 0.132,-0.278Zm0.068,-0.141l-0.058,0.12l0.058,-0.12Zm0.151,-0.302l-0.072,0.144l-0.068,0.137c0.046,-0.094 0.093,-0.188 0.14,-0.281Zm0.071,-0.137l-0.069,0.134l0.069,-0.134Zm0.078,-0.151l-0.07,0.134l0.07,-0.134Zm0.152,-0.283l-0.075,0.139l-0.076,0.142c0.05,-0.094 0.1,-0.188 0.151,-0.281Zm0.078,-0.141l-0.072,0.131l0.072,-0.131Zm0.239,-0.422l-0.077,0.135c-0.027,0.047 -0.054,0.093 -0.08,0.14l-0.078,0.139c0.077,-0.139 0.156,-0.277 0.235,-0.414Zm0.249,-0.418l-0.081,0.134c-0.027,0.046 -0.055,0.092 -0.083,0.139l-0.079,0.135c0.08,-0.137 0.161,-0.273 0.243,-0.408Zm0.086,-0.139l-0.079,0.128l0.079,-0.128Zm0.172,-0.274l-0.084,0.133l-0.085,0.136c0.056,-0.09 0.112,-0.18 0.169,-0.269Zm0.084,-0.13l-0.078,0.121l0.078,-0.121Zm0.183,-0.278l-0.089,0.134l-0.084,0.128c0.057,-0.087 0.115,-0.175 0.173,-0.262Zm0.084,-0.124l-0.081,0.119l0.081,-0.119Zm0.09,-0.132l-0.075,0.109l0.075,-0.109Zm0.185,-0.265l-0.085,0.12l-0.088,0.127c0.057,-0.083 0.115,-0.165 0.173,-0.247Zm0.087,-0.122l-0.065,0.091l0.065,-0.091Zm0.098,-0.135l-0.072,0.1l0.072,-0.1Zm0.099,-0.135c-0.028,0.038 -0.056,0.076 -0.084,0.115l0.084,-0.115Zm0.087,-0.116l-0.055,0.074l0.055,-0.074Zm0.087,-0.116l-0.05,0.066l0.05,-0.066Zm0.103,-0.134l-0.063,0.082l0.063,-0.082Zm0.102,-0.131l-0.038,0.048l0.038,-0.048Zm0.085,-0.107l-0.032,0.039l0.032,-0.039Zm0.073,-0.092l-0.015,0.018l0.015,-0.018Zm0.227,-0.279l-0.008,0.009l0.008,-0.009Z" style="fill:#fff;fill-opacity:0.84;stroke:#f00;stroke-width:0.36px;"/></g></svg>