<?xml version="1.0" encoding="UTF-8" standalone="no"?><!DOCTYPE svg PUBLIC "-//W3C//DTD SVG 1.1//EN" "http://www.w3.org/Graphics/SVG/1.1/DTD/svg11.dtd"><svg width="100%" height="100%" viewBox="0 0 200 150" version="1.1" xmlns="http://www.w3.org/2000/svg" xmlns:xlink="http://www.w3.org/1999/xlink" xml:space="preserve" xmlns:serif="http://www.serif.com/" style="fill-rule:evenodd;clip-rule:evenodd;stroke-linecap:round;stroke-linejoin:round;stroke-miterlimit:1.5;"><path d="M65.249,109.529c-16.197,-9.925 -26.796,-26.364 -26.796,-44.951c0,-30.28 28.132,-54.864 62.782,-54.864c34.65,0 62.782,24.584 62.782,54.864c-0,19.516 -11.686,36.666 -29.266,46.39l-0,36.133l-69.502,0l0,-37.572Z"/><clipPath id="_clip1"><path d="M65.249,109.529c-16.197,-9.925 -26.796,-26.364 -26.796,-44.951c0,-30.28 28.132,-54.864 62.782,-54.864c34.65,0 62.782,24.584 62.782,54.864c-0,19.516 -11.686,36.666 -29.266,46.39l-0,36.133l-69.502,0l0,-37.572Z"/></clipPath><g clip-path="url(#_clip1)"><path d="M66.949,119.122c-17.152,-10.924 -28.496,-29.801 -28.496,-51.239c0,-17.376 7.453,-33.07 19.412,-44.211c11.079,-17.377 30.847,-28.958 53.37,-28.958c34.65,0 62.782,27.409 62.782,61.169c-0,17.377 -7.453,33.071 -19.412,44.212c-11.079,17.377 -30.847,28.958 -53.37,28.958c-6.098,-0 -11.995,-0.849 -17.57,-2.432l-0,18.481l-16.716,0l0,-25.98Zm87.656,-19.027c-11.274,10.502 -26.554,16.958 -43.37,16.958c-34.65,-0 -62.782,-27.409 -62.782,-61.17c0,-11.816 3.446,-22.854 9.412,-32.211c11.274,-10.502 26.554,-16.958 43.37,-16.958c34.65,0 62.782,27.409 62.782,61.169c-0,11.816 -3.446,22.855 -9.412,32.212Z" style="fill-opacity:0.65;"/></g><path d="M65.249,109.529c-16.197,-9.925 -26.796,-26.364 -26.796,-44.951c0,-30.28 28.132,-54.864 62.782,-54.864c34.65,0 62.782,24.584 62.782,54.864c-0,19.516 -11.686,36.666 -29.266,46.39l-0,36.133l-69.502,0l0,-37.572Z" style="fill:none;stroke:#000;stroke-width:6px;"/></svg>