<?xml version="1.0" encoding="UTF-8" standalone="no"?><!DOCTYPE svg PUBLIC "-//W3C//DTD SVG 1.1//EN" "http://www.w3.org/Graphics/SVG/1.1/DTD/svg11.dtd"><svg width="100%" height="100%" viewBox="0 0 200 150" version="1.1" xmlns="http://www.w3.org/2000/svg" xmlns:xlink="http://www.w3.org/1999/xlink" xml:space="preserve" xmlns:serif="http://www.serif.com/" style="fill-rule:evenodd;clip-rule:evenodd;stroke-linecap:round;stroke-linejoin:round;stroke-miterlimit:1.5;"><rect x="50" y="25" width="100" height="100" style="fill:#ebebeb;fill-opacity:0.48;stroke:#00ff07;stroke-opacity:0.4;stroke-width:1px;stroke-dasharray:1,1;"/><rect x="84.897" y="128.133" width="30.205" height="18.966" style="stroke:#000;stroke-width:6px;"/><path d="M126.833,25l-0,-13.343l-53.666,-0l0,13.343l-23.167,-0l-0,103.133l100,-0l0,-103.133l-23.167,0Z"/><clipPath id="_clip1"><path d="M126.833,25l-0,-13.343l-53.666,-0l0,13.343l-23.167,-0l-0,103.133l100,-0l0,-103.133l-23.167,0Z"/></clipPath><g clip-path="url(#_clip1)"><path d="M70,25l-20,-0l-0,103.133l100,-0l0,-14l20,-0l0,-103.133l-23.167,0l-0,-13.343l-53.666,-0l0,13.343l-23.167,0l-0,14Zm80,89.133l0,-89.133l-23.167,0l-0,-13.343l-53.666,-0l0,13.343l-3.167,0l-0,89.133l80,-0Z" style="fill-opacity:0.65;"/></g><path d="M126.833,25l-0,-13.343l-53.666,-0l0,13.343l-23.167,-0l-0,103.133l100,-0l0,-103.133l-23.167,0Z" style="fill:none;stroke:#000;stroke-width:6px;"/></svg>