<?xml version="1.0" encoding="UTF-8" standalone="no"?><!DOCTYPE svg PUBLIC "-//W3C//DTD SVG 1.1//EN" "http://www.w3.org/Graphics/SVG/1.1/DTD/svg11.dtd"><svg width="100%" height="100%" viewBox="0 0 209 209" version="1.1" xmlns="http://www.w3.org/2000/svg" xmlns:xlink="http://www.w3.org/1999/xlink" xml:space="preserve" xmlns:serif="http://www.serif.com/" style="fill-rule:evenodd;clip-rule:evenodd;stroke-linecap:round;stroke-linejoin:round;stroke-miterlimit:1.5;"><rect id="Artboard1" x="0" y="0" width="208.333" height="208.333" style="fill:none;"/><path d="M121.599,105.306c-1.265,-4.32 -1.931,-9.221 -1.931,-14.209c-0,-15.684 6.458,-28.418 14.413,-28.418c7.746,0 14.074,12.075 14.4,27.191c-0.111,5.424 -0.899,10.723 -2.302,15.436l-24.58,0c-0,0 24.964,0 24.964,0c1.265,-4.32 1.931,-9.221 1.931,-14.209c0,-0.411 -0.004,-0.82 -0.013,-1.227c0.009,-0.439 0.013,-0.879 0.013,-1.32c0,-18.496 -7.742,-33.512 -17.279,-33.512c-9.536,0 -17.278,15.016 -17.278,33.512c-0,5.883 0.798,11.662 2.315,16.756l5.347,0Zm-51.918,-15.436c-0.009,0.407 -0.013,0.816 -0.013,1.227c-0,4.988 0.666,9.889 1.931,14.209l0.38,0c-1.401,-4.713 -2.188,-10.012 -2.298,-15.436c0.326,-15.116 6.653,-27.191 14.4,-27.191c7.955,0 14.413,12.734 14.413,28.418c0,4.988 -0.666,9.889 -1.931,14.209l-24.584,0c-0,0 29.877,0 29.877,0c1.514,-5.094 2.311,-10.873 2.311,-16.756c-0,-18.496 -7.73,-33.512 -17.25,-33.512c-9.52,0 -17.249,15.016 -17.249,33.512c-0,0.441 0.004,0.881 0.013,1.32Z" style="stroke:#000;stroke-width:4.17px;"/><path d="M96.563,105.306c1.265,-4.32 1.931,-9.221 1.931,-14.209c0,-15.684 -6.458,-28.418 -14.413,-28.418c-7.955,0 -14.413,12.734 -14.413,28.418c-0,4.988 0.666,9.889 1.931,14.209l24.964,0Zm50,0c1.265,-4.32 1.931,-9.221 1.931,-14.209c0,-15.684 -6.458,-28.418 -14.413,-28.418c-7.955,0 -14.413,12.734 -14.413,28.418c-0,4.988 0.666,9.889 1.931,14.209l24.964,0Z" style="fill:#fff;stroke:#000;stroke-width:4.17px;"/><path d="M87.964,81.552l-8.703,0l-0,12.994l8.703,-0l-0,-12.994Zm50.724,0l-8.703,0l0,12.994l8.703,-0l0,-12.994Z" style="fill:#620a0a;fill-opacity:0.77;stroke:#000;stroke-width:4.17px;"/></svg>