<?xml version="1.0" encoding="UTF-8" standalone="no"?>
<!DOCTYPE svg PUBLIC "-//W3C//DTD SVG 1.1//EN" "http://www.w3.org/Graphics/SVG/1.1/DTD/svg11.dtd">
<svg width="100%" height="100%" viewBox="0 0 303 303" version="1.1" xmlns="http://www.w3.org/2000/svg" xmlns:xlink="http://www.w3.org/1999/xlink" xml:space="preserve" xmlns:serif="http://www.serif.com/" style="fill-rule:evenodd;clip-rule:evenodd;stroke-linecap:round;stroke-linejoin:round;stroke-miterlimit:1.5;">
    <g transform="matrix(1,0,0,1,-243.107,-161.544)">
        <path d="M399.718,162.806C396.087,162.674 392.453,162.674 388.823,162.806L386.58,177.794C382.871,178.005 379.172,178.369 375.493,178.886L370.369,164.624C366.783,165.202 363.218,165.911 359.683,166.749L360.407,181.886C356.811,182.817 353.254,183.896 349.746,185.12L341.939,172.132C338.534,173.399 335.177,174.79 331.873,176.301L335.536,191.006C332.19,192.621 328.912,194.373 325.711,196.258L315.519,185.042C312.427,186.95 309.406,188.969 306.46,191.095L312.922,204.803C309.956,207.04 307.082,209.398 304.31,211.871L292.126,202.859C289.466,205.333 286.896,207.903 284.422,210.563L293.434,222.747C290.961,225.519 288.603,228.392 286.367,231.359L272.659,224.897C270.532,227.842 268.513,230.864 266.606,233.956L277.821,244.148C275.936,247.349 274.184,250.627 272.57,253.973L257.865,250.31C256.353,253.613 254.963,256.971 253.695,260.375L266.684,268.183C265.46,271.691 264.381,275.247 263.45,278.844L248.312,278.12C247.475,281.655 246.766,285.219 246.187,288.806L260.449,293.929C259.933,297.609 259.568,301.307 259.357,305.017L244.369,307.26C244.237,310.89 244.237,314.524 244.369,318.155L259.357,320.398C259.568,324.107 259.933,327.806 260.449,331.485L246.187,336.608C246.766,340.195 247.475,343.759 248.312,347.294L263.45,346.57C264.381,350.167 265.46,353.723 266.684,357.231L253.695,365.039C254.963,368.443 256.353,371.801 257.865,375.105L272.57,371.441C274.184,374.787 275.936,378.065 277.821,381.267L266.606,391.458C268.513,394.55 270.532,397.572 272.659,400.517L286.367,394.055C288.603,397.022 290.961,399.895 293.434,402.667L284.422,414.851C286.896,417.512 289.466,420.081 292.126,422.555L304.31,413.543C307.082,416.017 309.956,418.374 312.922,420.611L306.46,434.319C309.406,436.445 312.427,438.464 315.519,440.372L325.711,429.156C328.912,431.041 332.19,432.793 335.536,434.408L331.873,449.113C335.177,450.624 338.534,452.015 341.939,453.282L349.746,440.294C353.254,441.518 356.811,442.597 360.407,443.528L359.683,458.665C363.218,459.503 366.783,460.212 370.369,460.791L375.493,446.529C379.172,447.045 382.871,447.409 386.58,447.62L388.823,462.608C392.453,462.74 396.087,462.74 399.718,462.608L401.961,447.62C405.67,447.409 409.369,447.045 413.048,446.529L418.172,460.791C421.758,460.212 425.323,459.503 428.857,458.665L428.133,443.528C431.73,442.597 435.287,441.518 438.794,440.294L446.602,453.282C450.007,452.015 453.364,450.624 456.668,449.113L453.005,434.408C456.351,432.793 459.628,431.041 462.83,429.156L473.022,440.372C476.113,438.464 479.135,436.445 482.08,434.319L475.619,420.611C478.585,418.374 481.458,416.017 484.231,413.543L496.414,422.555C499.075,420.081 501.645,417.512 504.118,414.851L495.107,402.667C497.58,399.895 499.938,397.022 502.174,394.055L515.882,400.517C518.009,397.572 520.028,394.55 521.935,391.458L510.719,381.267C512.604,378.065 514.356,374.787 515.971,371.441L530.676,375.105C532.187,371.801 533.578,368.443 534.846,365.039L521.857,357.231C523.081,353.723 524.16,350.167 525.091,346.57L540.228,347.294C541.066,343.759 541.775,340.195 542.354,336.608L528.092,331.485C528.608,327.806 528.972,324.107 529.184,320.398L544.171,318.155C544.303,314.524 544.303,310.89 544.171,307.26L529.184,305.017C528.972,301.307 528.608,297.609 528.092,293.929L542.354,288.806C541.775,285.219 541.066,281.655 540.228,278.12L525.091,278.844C524.16,275.247 523.081,271.691 521.857,268.183L534.846,260.375C533.578,256.971 532.187,253.613 530.676,250.31L515.971,253.973C514.356,250.627 512.604,247.349 510.719,244.148L521.935,233.956C520.028,230.864 518.009,227.842 515.882,224.897L502.174,231.359C499.938,228.392 497.58,225.519 495.107,222.747L504.118,210.563C501.645,207.903 499.075,205.333 496.414,202.859L484.231,211.871C481.458,209.398 478.585,207.04 475.619,204.803L482.08,191.095C479.135,188.969 476.113,186.95 473.022,185.042L462.83,196.258C459.628,194.373 456.351,192.621 453.005,191.006L456.668,176.301C453.364,174.79 450.007,173.399 446.602,172.132L438.794,185.12C435.287,183.896 431.73,182.817 428.133,181.886L428.857,166.749C425.323,165.911 421.758,165.202 418.172,164.624L413.048,178.886C409.369,178.369 405.67,178.005 401.961,177.794L399.718,162.806ZM309.017,367.556C412.803,429.271 417.183,417.695 485.062,338.3C520.696,296.621 460.809,307.951 434.637,344.529C393,402.722 270.851,344.86 309.017,367.556ZM430.796,209.937C459.874,209.937 483.483,231.832 483.483,258.8C483.483,285.768 459.874,307.663 430.796,307.663C401.717,307.663 378.108,285.768 378.108,258.8C378.108,231.832 401.717,209.937 430.796,209.937ZM331.37,251.577C348.723,251.577 362.812,263.952 362.812,279.195C362.812,294.438 348.723,306.813 331.37,306.813C314.016,306.813 299.928,294.438 299.928,279.195C299.928,263.952 314.016,251.577 331.37,251.577Z" style="stroke:black;stroke-width:2.33px;"/>
        <g transform="matrix(1.30245,0,0,1.45455,-119.489,-155.066)">
            <ellipse cx="333.919" cy="296.191" rx="11.897" ry="13.172" style="stroke:black;stroke-width:1.69px;"/>
        </g>
        <g transform="matrix(1.30245,0,0,1.45455,-40.0071,-162.637)">
            <ellipse cx="333.919" cy="296.191" rx="11.897" ry="13.172" style="stroke:black;stroke-width:1.69px;"/>
        </g>
    </g>
</svg>
