<?xml version="1.0" encoding="UTF-8"?>
<!DOCTYPE svg PUBLIC "-//W3C//DTD SVG 1.1//EN" "http://www.w3.org/Graphics/SVG/1.1/DTD/svg11.dtd">
<!-- Creator: CorelDRAW -->
<svg xmlns="http://www.w3.org/2000/svg" xml:space="preserve" width="2048px" height="2048px" style="shape-rendering:geometricPrecision; text-rendering:geometricPrecision; image-rendering:optimizeQuality; fill-rule:evenodd; clip-rule:evenodd"
viewBox="0 0 2048 2048"
 xmlns:xlink="http://www.w3.org/1999/xlink">
 <defs>
  <style type="text/css">
   <![CDATA[
    .fil1 {fill:none}
    .fil0 {fill:#424242;fill-rule:nonzero}
   ]]>
  </style>
 </defs>
 <g id="Layer_x0020_1">
  <metadata id="CorelCorpID_0Corel-Layer"/>
  <path class="fil0" d="M1315.71 1095.32l28.5 -14.25c133.459,266.919 391.801,311.621 417.831,315.497 8.82875,0.582284 17.3776,4.80118 23.2169,12.3508 10.8118,13.9795 8.24528,34.0784 -5.73426,44.8902l-19.578 -25.3122 19.5 25.2496c-165.065,127.676 -338.498,21.2114 -454.695,-50.1189 -41.3469,-25.3819 -73.904,-45.3674 -83.9871,-43.8237 -1.70433,0.259843 4.42678,11.8654 9.47481,44.0823 1.82008,9.47953 -0.651969,19.6701 -7.58977,27.4134l-0.0980316 -0.0885827c-54.3272,60.6178 -120.978,89.2335 -165.158,91.3701 -19.5508,0.946064 -36.5918,-2.95866 -49.2496,-11.348 -17.3469,-11.4969 -26.1331,-28.8319 -23.4945,-51.4595 2.78977,-23.9303 22.2154,-55.1351 65.3894,-90.6603l-74.7686 -80.8949 -25.6394 -9.61418 7.37599 70.1197c0.703938,3.86339 0.7063,7.92402 -0.111024,12.0095l-0.00826772 -0.0011811c-14.3067,71.4721 -87.5493,117.673 -149.185,133.018 -27.2516,6.78426 -53.4851,7.73977 -72.8316,2.42244 -31.9654,-8.78505 -49.2969,-29.8949 -41.4851,-64.5449 4.90158,-21.7536 25.1634,-50.087 67.826,-84.4465l-45.4678 -116.204c-95.0009,-38.3776 -153.163,-91.9855 -188.225,-147.553 -62.1579,-98.5064 -50.7201,-202.008 -43.5969,-239.686 1.96772,-10.4114 1.27677,-12.6685 -1.3878,-21.3697 -1.33583,-4.36181 -2.21575,-7.15158 -2.5063,-8.14016 -23.4024,-79.4989 -65.1945,-79.3914 -97.7658,-69.8032 -8.99174,2.64685 -17.974,6.02008 -25.976,9.02599 -6.25394,2.34921 -12.0331,4.52008 -15.6815,5.72953 -11.8595,3.92835 -20.5335,3.84331 -27.1323,3.77717 -0.598819,-0.00472441 -1.16221,-0.0106299 -1.68307,0 -51.9839,1.11969 -74.8312,-27.5032 -75.7052,-68.0162 -0.494882,-22.9961 8.23465,-49.8036 23.8878,-74.8382 14.7024,-23.5158 35.9563,-46.4268 61.6016,-63.6437 70.7339,-47.4839 172.251,-54.2646 260.869,77.7426 21.6461,32.2488 28.0925,49.9111 39.43,80.9776 2.23465,6.12284 -5.11654,-14.0055 3.10866,8.37166 59.9422,163.084 168.481,159.847 286.33,156.332 140.573,-4.19292 292.393,-8.70001 411.297,198.098 0.62126,0.966142 1.2,1.97599 1.72559,3.02717l-28.6217 14.3114z"/>
 </g>
 <rect class="fil1" width="2048" height="2048"/>
</svg>
