<?xml version="1.0" encoding="UTF-8" standalone="no"?><!DOCTYPE svg PUBLIC "-//W3C//DTD SVG 1.1//EN" "http://www.w3.org/Graphics/SVG/1.1/DTD/svg11.dtd"><svg width="100%" height="100%" viewBox="0 0 100 200" version="1.1" xmlns="http://www.w3.org/2000/svg" xmlns:xlink="http://www.w3.org/1999/xlink" xml:space="preserve" xmlns:serif="http://www.serif.com/" style="fill-rule:evenodd;clip-rule:evenodd;stroke-linecap:round;stroke-linejoin:round;stroke-miterlimit:1.5;"><path d="M26.037,83.703c11.499,-17.106 18.157,-28.538 18.157,-28.538" style="fill:none;stroke:#fff;stroke-width:3px;"/><path d="M36.567,93.628c12.846,27.721 20.107,46.106 20.107,46.106" style="fill:none;stroke:#fff;stroke-width:3px;"/><ellipse cx="33.955" cy="85.075" rx="2.612" ry="2.488" style="fill:#ebebeb;stroke:#000;stroke-width:3px;"/><path d="M54.854,34.69c-0.744,-2.042 -1.146,-4.224 -1.146,-6.49c0,-11.445 10.26,-20.737 22.897,-20.737c12.638,-0 22.897,9.292 22.897,20.737c0,11.445 -10.259,20.737 -22.897,20.737c-2.033,0 -4.005,-0.24 -5.881,-0.691l-29.19,44.855l22.808,51.856c0.548,1.245 0.456,2.572 -0.134,3.697c2.669,0.366 5.303,1.191 7.755,2.505c10.047,5.384 13.247,16.939 7.147,25.808l-13.644,-7.312c1.525,-2.217 0.725,-5.106 -1.787,-6.452c-2.51,-1.345 -5.785,-0.639 -7.309,1.577c-1.525,2.217 -0.725,5.106 1.787,6.452l-8.283,12.044c-10.047,-5.384 -13.247,-16.939 -7.148,-25.808c0.948,-1.377 2.064,-2.609 3.311,-3.686c-0.717,-0.503 -1.298,-1.176 -1.653,-1.985l-26.692,-60.686c-1.07,-2.431 0.298,-5.171 3.052,-6.114l1.766,-0.606l32.344,-49.701Z" style="stroke:#000;stroke-width:6px;"/></svg>