<?xml version="1.0" encoding="UTF-8" standalone="no"?><!DOCTYPE svg PUBLIC "-//W3C//DTD SVG 1.1//EN" "http://www.w3.org/Graphics/SVG/1.1/DTD/svg11.dtd"><svg width="100%" height="100%" viewBox="0 0 200 200" version="1.1" xmlns="http://www.w3.org/2000/svg" xmlns:xlink="http://www.w3.org/1999/xlink" xml:space="preserve" xmlns:serif="http://www.serif.com/" style="fill-rule:evenodd;clip-rule:evenodd;stroke-linecap:round;stroke-linejoin:round;stroke-miterlimit:1.5;"><rect id="Artboard1" x="0" y="0" width="200" height="200" style="fill:none;"/><g id="Artboard11" serif:id="Artboard1"><path d="M188.848,10l-177.696,-0l28.701,180l120.294,-0l28.701,-180Z"/><clipPath id="_clip1"><path d="M188.848,10l-177.696,-0l28.701,180l120.294,-0l28.701,-180Z"/></clipPath><g clip-path="url(#_clip1)"><path d="M34.341,10l-23.189,-0l28.701,180l120.294,-0l3.189,-20l16.811,-0l28.701,-180l-177.696,-0l3.189,20Zm0,-0l25.512,160l103.483,-0l25.512,-160l-154.507,-0Z" style="fill-opacity:0.65;"/></g><path d="M188.848,10l-177.696,-0l28.701,180l120.294,-0l28.701,-180Z" style="fill:none;stroke:#000;stroke-width:6px;"/></g></svg>