<?xml version="1.0" encoding="UTF-8" standalone="no"?><!DOCTYPE svg PUBLIC "-//W3C//DTD SVG 1.1//EN" "http://www.w3.org/Graphics/SVG/1.1/DTD/svg11.dtd"><svg width="100%" height="100%" viewBox="0 0 200 100" version="1.1" xmlns="http://www.w3.org/2000/svg" xmlns:xlink="http://www.w3.org/1999/xlink" xml:space="preserve" xmlns:serif="http://www.serif.com/" style="fill-rule:evenodd;clip-rule:evenodd;stroke-linecap:round;stroke-linejoin:round;stroke-miterlimit:1.5;"><rect id="Artboard1" x="0" y="0" width="200" height="100" style="fill:none;"/><g id="Artboard11" serif:id="Artboard1"><g><path d="M131.927,65.461l0,8.122c0,3.053 3.046,5.532 6.798,5.532l37.446,-0c3.752,-0 6.798,-2.479 6.798,-5.532l-0,-11.064c-0,-3.053 -3.046,-5.531 -6.798,-5.531l-2.266,-0l0,-26.495c0,-5.303 -5.29,-9.608 -11.806,-9.608l-23.613,0c-6.516,0 -11.806,4.305 -11.806,9.608l-0,26.98c-0,3.328 2.084,6.264 5.247,7.988Z" style="stroke:#000;stroke-width:3px;"/></g><g><path d="M68.073,65.461l-0,8.122c-0,3.053 -3.046,5.532 -6.798,5.532l-37.446,-0c-3.752,-0 -6.798,-2.479 -6.798,-5.532l0,-11.064c0,-3.053 3.046,-5.531 6.798,-5.531l2.266,-0l-0,-26.495c-0,-5.303 5.29,-9.608 11.806,-9.608l23.613,0c6.516,0 11.806,4.305 11.806,9.608l0,26.98c0,3.328 -2.084,6.264 -5.247,7.988Z" style="stroke:#000;stroke-width:3px;"/><path d="M26.044,56.663c10.48,-4.295 21.295,-4.246 32.811,4.919" style="stroke:#000;stroke-width:3px;"/></g></g></svg>