<?xml version="1.0" encoding="UTF-8" standalone="no"?><!DOCTYPE svg PUBLIC "-//W3C//DTD SVG 1.1//EN" "http://www.w3.org/Graphics/SVG/1.1/DTD/svg11.dtd"><svg width="100%" height="100%" viewBox="0 0 200 200" version="1.1" xmlns="http://www.w3.org/2000/svg" xmlns:xlink="http://www.w3.org/1999/xlink" xml:space="preserve" xmlns:serif="http://www.serif.com/" style="fill-rule:evenodd;clip-rule:evenodd;stroke-linecap:round;stroke-linejoin:round;stroke-miterlimit:1.5;"><rect id="Artboard1" x="0" y="0" width="200" height="200" style="fill:none;"/><g id="Artboard11" serif:id="Artboard1"><path d="M175,43.659l0,-20.868l-150,-0l-0,20.868l-7.739,-0l-0,58.034l7.739,0l-0,34.162l10,0l0,54.145l130,0l0,-54.145l10,0l0,-34.162l7,0l0,-58.034l-7,-0Z"/><clipPath id="_clip1"><path d="M175,43.659l0,-20.868l-150,-0l-0,20.868l-7.739,-0l-0,58.034l7.739,0l-0,34.162l10,0l0,54.145l130,0l0,-54.145l10,0l0,-34.162l7,0l0,-58.034l-7,-0Z"/></clipPath><g clip-path="url(#_clip1)"><path d="M53,22.791l-28,-0l-0,20.868l-7.739,-0l-0,58.034l7.739,0l-0,34.162l10,0l0,54.145l130,-0l0,-20l28,-0l0,-54.145l10,0l0,-34.162l7,0l0,-58.034l-7,-0l0,-20.868l-150,-0l-0,20Zm-0,-0l-0,0.868l-7.739,-0l-0,78.256l7.739,-0l-0,34.162l10,-0l0,33.923l102,0l0,-34.145l10,0l0,-34.162l7,0l0,-58.034l-7,-0l0,-20.868l-122,-0Z" style="fill-opacity:0.67;"/></g><path d="M175,43.659l0,-20.868l-150,-0l-0,20.868l-7.739,-0l-0,58.034l7.739,0l-0,34.162l10,0l0,54.145l130,0l0,-54.145l10,0l0,-34.162l7,0l0,-58.034l-7,-0Z" style="fill:none;stroke:#000;stroke-width:6px;"/></g></svg>