<?xml version="1.0" encoding="UTF-8" standalone="no"?><!DOCTYPE svg PUBLIC "-//W3C//DTD SVG 1.1//EN" "http://www.w3.org/Graphics/SVG/1.1/DTD/svg11.dtd"><svg width="100%" height="100%" viewBox="0 0 200 200" version="1.1" xmlns="http://www.w3.org/2000/svg" xmlns:xlink="http://www.w3.org/1999/xlink" xml:space="preserve" xmlns:serif="http://www.serif.com/" style="fill-rule:evenodd;clip-rule:evenodd;stroke-linecap:round;stroke-linejoin:round;stroke-miterlimit:1.5;"><rect id="Artboard1" x="0" y="0" width="200" height="200" style="fill:none;"/><g id="Artboard11" serif:id="Artboard1"><g><path d="M118.073,28.464l10.706,-17.31l-57.558,-0l10.706,17.31l-38.138,0c-12.114,0 -21.95,9.597 -21.95,21.417l0,94.795c0,11.82 9.836,21.417 21.95,21.417l9.955,-0c-17.369,4.126 -28.525,10.52 -28.525,17.692c-0,3.953 3.455,7.837 10.018,11.261l129.526,0c6.563,-3.424 10.018,-7.308 10.018,-11.261c0,-7.172 -11.156,-13.566 -28.525,-17.692l9.628,-0c12.114,-0 21.95,-9.597 21.95,-21.417l-0,-94.795c-0,-11.82 -9.836,-21.417 -21.95,-21.417l-37.811,0Z"/><clipPath id="_clip1"><path d="M118.073,28.464l10.706,-17.31l-57.558,-0l10.706,17.31l-38.138,0c-12.114,0 -21.95,9.597 -21.95,21.417l0,94.795c0,11.82 9.836,21.417 21.95,21.417l9.955,-0c-17.369,4.126 -28.525,10.52 -28.525,17.692c-0,3.953 3.455,7.837 10.018,11.261l129.526,0c6.563,-3.424 10.018,-7.308 10.018,-11.261c0,-7.172 -11.156,-13.566 -28.525,-17.692l9.628,-0c12.114,-0 21.95,-9.597 21.95,-21.417l-0,-94.795c-0,-11.82 -9.836,-21.417 -21.95,-21.417l-37.811,0Z"/></clipPath><g clip-path="url(#_clip1)"><path d="M30.736,192.275l0,2.771l147.098,0l-0,0l6.929,0c6.563,-3.424 10.018,-7.308 10.018,-11.261c0,-7.172 -11.156,-13.566 -28.525,-17.692l9.628,-0c12.114,-0 21.95,-9.597 21.95,-21.417l-0,-94.795c-0,-11.82 -9.836,-21.417 -21.95,-21.417l-20,0c12.114,0 21.95,9.597 21.95,21.417l-0,94.795c-0,11.82 -9.836,21.417 -21.95,21.417l-9.628,-0l0.041,0.009l-72.594,0l0.041,-0.009l-9.955,-0c-12.114,-0 -21.95,-9.597 -21.95,-21.417l0,-94.795c0,-11.82 9.836,-21.417 21.95,-21.417l-20,0c-12.114,0 -21.95,9.597 -21.95,21.417l0,94.795c0,11.82 9.836,21.417 21.95,21.417l9.955,-0l-0.041,0.009l-124.53,0l99.857,10.571c-2.473,2.236 -3.811,4.627 -3.811,7.112c-0,2.921 1.886,5.804 5.517,8.49Zm117.935,-25.584l-100.311,10.619c-1.732,1.739 -2.785,3.565 -3.065,5.451l129.41,0c-0.955,-6.42 -10.854,-12.145 -26.034,-16.07Zm-10.598,-138.227l10.706,-17.31l-20,-0l-10.706,17.31l20,0Zm-46.852,-17.31l-20,-0l10.706,17.31l20,0l-10.706,-17.31Z" style="fill-opacity:0.67;"/></g><path d="M118.073,28.464l10.706,-17.31l-57.558,-0l10.706,17.31l-38.138,0c-12.114,0 -21.95,9.597 -21.95,21.417l0,94.795c0,11.82 9.836,21.417 21.95,21.417l9.955,-0c-17.369,4.126 -28.525,10.52 -28.525,17.692c-0,3.953 3.455,7.837 10.018,11.261l129.526,0c6.563,-3.424 10.018,-7.308 10.018,-11.261c0,-7.172 -11.156,-13.566 -28.525,-17.692l9.628,-0c12.114,-0 21.95,-9.597 21.95,-21.417l-0,-94.795c-0,-11.82 -9.836,-21.417 -21.95,-21.417l-37.811,0Z" style="fill:none;stroke:#000;stroke-width:6px;"/></g></g></svg>