<?xml version="1.0" encoding="UTF-8" standalone="no"?><!DOCTYPE svg PUBLIC "-//W3C//DTD SVG 1.1//EN" "http://www.w3.org/Graphics/SVG/1.1/DTD/svg11.dtd"><svg width="100%" height="100%" viewBox="0 0 200 200" version="1.1" xmlns="http://www.w3.org/2000/svg" xmlns:xlink="http://www.w3.org/1999/xlink" xml:space="preserve" xmlns:serif="http://www.serif.com/" style="fill-rule:evenodd;clip-rule:evenodd;stroke-linecap:round;stroke-linejoin:round;stroke-miterlimit:1.5;"><rect id="Artboard1" x="0" y="0" width="200" height="200" style="fill:none;"/><g id="Artboard11" serif:id="Artboard1"><path d="M120.219,10c31.585,12.458 54.781,53.38 54.781,101.883c0,30.924 -9.429,58.767 -24.452,78.117l-101.096,0c-15.023,-19.35 -24.452,-47.193 -24.452,-78.117c-0,-48.503 23.196,-89.425 54.781,-101.883l40.438,0Z"/><clipPath id="_clip1"><path d="M120.219,10c31.585,12.458 54.781,53.38 54.781,101.883c0,30.924 -9.429,58.767 -24.452,78.117l-101.096,0c-15.023,-19.35 -24.452,-47.193 -24.452,-78.117c-0,-48.503 23.196,-89.425 54.781,-101.883l40.438,0Z"/></clipPath><g clip-path="url(#_clip1)"><path d="M67.261,16.704c13.555,-18.915 32.187,-30.599 52.739,-30.599c41.394,-0 75,47.397 75,105.778c0,41.83 -17.253,78.021 -42.261,95.179c-13.555,18.915 -32.187,30.599 -52.739,30.599c-41.394,0 -75,-47.397 -75,-105.778c-0,-41.83 17.253,-78.021 42.261,-95.179Zm85.478,170.358c-9.895,6.79 -21.004,10.599 -32.739,10.599c-41.394,0 -75,-47.397 -75,-105.778c-0,-29.395 8.52,-56.005 22.261,-75.179c9.895,-6.79 21.004,-10.599 32.739,-10.599c41.394,-0 75,47.397 75,105.778c0,29.395 -8.52,56.005 -22.261,75.179Z" style="fill-opacity:0.65;"/></g><path d="M120.219,10c31.585,12.458 54.781,53.38 54.781,101.883c0,30.924 -9.429,58.767 -24.452,78.117l-101.096,0c-15.023,-19.35 -24.452,-47.193 -24.452,-78.117c-0,-48.503 23.196,-89.425 54.781,-101.883l40.438,0Z" style="fill:none;stroke:#000;stroke-width:6px;"/></g></svg>