<?xml version="1.0" encoding="UTF-8" standalone="no"?><!DOCTYPE svg PUBLIC "-//W3C//DTD SVG 1.1//EN" "http://www.w3.org/Graphics/SVG/1.1/DTD/svg11.dtd"><svg width="100%" height="100%" viewBox="0 0 200 200" version="1.1" xmlns="http://www.w3.org/2000/svg" xmlns:xlink="http://www.w3.org/1999/xlink" xml:space="preserve" xmlns:serif="http://www.serif.com/" style="fill-rule:evenodd;clip-rule:evenodd;stroke-linecap:round;stroke-linejoin:round;stroke-miterlimit:1.5;"><rect id="Artboard1" x="0" y="0" width="200" height="200" style="fill:none;"/><g id="Artboard11" serif:id="Artboard1"><path d="M124.251,11.466c37.883,12.357 65.705,52.946 65.705,101.053c0,30.673 -11.31,58.289 -29.328,77.481l-121.256,0c-18.018,-19.192 -29.328,-46.808 -29.328,-77.481c-0,-48.107 27.822,-88.696 65.705,-101.053l48.502,0Z"/><clipPath id="_clip1"><path d="M124.251,11.466c37.883,12.357 65.705,52.946 65.705,101.053c0,30.673 -11.31,58.289 -29.328,77.481l-121.256,0c-18.018,-19.192 -29.328,-46.808 -29.328,-77.481c-0,-48.107 27.822,-88.696 65.705,-101.053l48.502,0Z"/></clipPath><g clip-path="url(#_clip1)"><path d="M60.732,18.115c16.258,-18.761 38.606,-30.349 63.256,-30.349c49.648,-0 89.956,47.011 89.956,104.916c0,41.489 -20.693,77.386 -50.688,94.404c-16.258,18.761 -38.606,30.35 -63.256,30.35c-49.648,0 -89.956,-47.011 -89.956,-104.917c-0,-41.489 20.693,-77.385 50.688,-94.404Zm102.524,168.971c-11.868,6.735 -25.193,10.513 -39.268,10.513c-49.648,0 -89.956,-47.012 -89.956,-104.917c0,-29.155 10.219,-55.549 26.7,-74.567c11.868,-6.734 25.193,-10.512 39.268,-10.512c49.648,-0 89.956,47.011 89.956,104.916c0,29.156 -10.219,55.549 -26.7,74.567Z" style="fill-opacity:0.65;"/></g><path d="M124.251,11.466c37.883,12.357 65.705,52.946 65.705,101.053c0,30.673 -11.31,58.289 -29.328,77.481l-121.256,0c-18.018,-19.192 -29.328,-46.808 -29.328,-77.481c-0,-48.107 27.822,-88.696 65.705,-101.053l48.502,0Z" style="fill:none;stroke:#000;stroke-width:6px;"/></g></svg>