<?xml version="1.0" encoding="UTF-8" standalone="no"?><!DOCTYPE svg PUBLIC "-//W3C//DTD SVG 1.1//EN" "http://www.w3.org/Graphics/SVG/1.1/DTD/svg11.dtd"><svg width="100%" height="100%" viewBox="0 0 200 200" version="1.1" xmlns="http://www.w3.org/2000/svg" xmlns:xlink="http://www.w3.org/1999/xlink" xml:space="preserve" xmlns:serif="http://www.serif.com/" style="fill-rule:evenodd;clip-rule:evenodd;stroke-linecap:round;stroke-linejoin:round;stroke-miterlimit:1.5;"><rect id="Artboard1" x="0" y="0" width="200" height="200" style="fill:none;"/><g id="Artboard11" serif:id="Artboard1"><path d="M39.372,138.387c-18.018,-13.644 -29.328,-33.276 -29.328,-55.081c-0,-34.2 27.822,-63.055 65.705,-71.84l48.502,0c37.883,8.785 65.705,37.64 65.705,71.84c0,21.805 -11.31,41.437 -29.328,55.081l1.249,0l-0,55.352l-123.461,0l0,-55.352l0.956,0Z"/><clipPath id="_clip1"><path d="M39.372,138.387c-18.018,-13.644 -29.328,-33.276 -29.328,-55.081c-0,-34.2 27.822,-63.055 65.705,-71.84l48.502,0c37.883,8.785 65.705,37.64 65.705,71.84c0,21.805 -11.31,41.437 -29.328,55.081l1.249,0l-0,55.352l-123.461,0l0,-55.352l0.956,0Z"/></clipPath><g clip-path="url(#_clip1)"><path d="M38.123,193.739l0,-55.425l1.152,-0c-17.96,-13.638 -29.231,-33.24 -29.231,-55.008c-0,-29.495 20.693,-55.014 50.688,-67.113c16.258,-13.337 38.606,-21.576 63.256,-21.576c49.648,0 89.956,33.421 89.956,74.586c0,29.495 -20.693,55.014 -50.688,67.113c-16.258,13.337 -38.606,21.576 -63.256,21.576c-10.486,-0 -20.555,-1.491 -29.912,-4.23l-0,19.549l92.375,0l0,20.528l-124.34,0Zm125.133,-57.423c-11.868,4.787 -25.193,7.473 -39.268,7.473c-49.648,0 -89.956,-33.421 -89.956,-74.586c0,-20.726 10.219,-39.49 26.7,-53.01c11.868,-4.787 25.193,-7.473 39.268,-7.473c49.648,-0 89.956,33.42 89.956,74.586c0,20.726 -10.219,39.49 -26.7,53.01Z" style="fill-opacity:0.65;"/></g><path d="M39.372,138.387c-18.018,-13.644 -29.328,-33.276 -29.328,-55.081c-0,-34.2 27.822,-63.055 65.705,-71.84l48.502,0c37.883,8.785 65.705,37.64 65.705,71.84c0,21.805 -11.31,41.437 -29.328,55.081l1.249,0l-0,55.352l-123.461,0l0,-55.352l0.956,0Z" style="fill:none;stroke:#000;stroke-width:6px;"/></g></svg>